<?xml version="1.0" encoding="utf-8"?>
<!-- Generator: Adobe Illustrator 24.1.0, SVG Export Plug-In . SVG Version: 6.00 Build 0)  -->
<svg version="1.1" id="Layer_1" xmlns="http://www.w3.org/2000/svg" xmlns:xlink="http://www.w3.org/1999/xlink" x="0px" y="0px"
	 viewBox="0 0 72.9 100" style="enable-background:new 0 0 72.9 100;" xml:space="preserve">
<g>
	<path d="M36.4,0C16.3,0,0,16.3,0,36.4c0,15.8,10.1,29.3,24.1,34.3L36.4,100l12.3-29.3c14.1-5,24.1-18.5,24.1-34.3
		C72.9,16.3,56.5,0,36.4,0z M56.2,36.1c0,0.9-0.7,1.6-1.6,1.6h-1.4v12.8h-1.8V54c0,1.2-1,2.2-2.3,2.2H46c-1.3,0-2.3-1-2.3-2.2v-3.5
		c-2.1,0-12.5,0-14.6,0V54c0,1.2-1,2.2-2.3,2.2h-3.1c-1.3,0-2.3-1-2.3-2.2v-3.5h-1.7V37.7h-1.4c-0.9,0-1.6-0.7-1.6-1.6v-7.9
		c0-0.9,0.7-1.6,1.6-1.6h1.4V22c0-3.5,3.1-5.3,6.5-5.3h10.3h0h10.3c3.4,0,6.5,1.8,6.5,5.3v4.6h1.4c0.9,0,1.6,0.7,1.6,1.6
		C56.2,28.2,56.2,36.1,56.2,36.1z M27.5,44.7c0,1.4-1.2,2.6-2.7,2.6c-1.5,0-2.7-1.2-2.7-2.6s1.2-2.6,2.7-2.6
		C26.3,42.1,27.5,43.3,27.5,44.7z M22.5,24.1h12V38h-12V24.1z M50.3,38h-12V24.1h12V38z M50.8,44.7c0,1.4-1.2,2.6-2.7,2.6
		c-1.5,0-2.7-1.2-2.7-2.6s1.2-2.6,2.7-2.6C49.6,42.1,50.8,43.3,50.8,44.7z"/>
</g>
</svg>
